<?xml version="1.0" encoding="UTF-8"?>
<svg xmlns="http://www.w3.org/2000/svg" xmlns:xlink="http://www.w3.org/1999/xlink" width="50px" height="50px" viewBox="0 0 768 767.999994" version="1.2">
<defs>
<clipPath id="clip1">
  <path d="M 332.113281 159.476562 L 576.613281 159.476562 L 576.613281 403.976562 L 332.113281 403.976562 Z M 332.113281 159.476562 "/>
</clipPath>
<clipPath id="clip2">
  <path d="M 191.378906 496 L 472.417969 496 L 472.417969 608.824219 L 191.378906 608.824219 Z M 191.378906 496 "/>
</clipPath>
<clipPath id="clip3">
  <path d="M 242 301.324219 L 422 301.324219 L 422 481 L 242 481 Z M 242 301.324219 "/>
</clipPath>
</defs>
<g id="surface1">
<g clip-path="url(#clip1)" clip-rule="nonzero">
<path style=" stroke:none;fill-rule:nonzero;fill:rgb(49.409485%,85.099792%,34.118652%);fill-opacity:1;" d="M 454.363281 159.476562 C 387.128906 159.476562 332.113281 214.488281 332.113281 281.726562 C 332.113281 348.964844 387.128906 403.976562 454.363281 403.976562 C 521.601562 403.976562 576.613281 348.964844 576.613281 281.726562 C 576.613281 214.488281 521.601562 159.476562 454.363281 159.476562 Z M 503.265625 293.953125 L 466.589844 293.953125 L 466.589844 330.628906 C 466.589844 337.960938 461.699219 342.851562 454.363281 342.851562 C 447.03125 342.851562 442.140625 337.960938 442.140625 330.628906 L 442.140625 293.953125 L 405.464844 293.953125 C 398.128906 293.953125 393.238281 289.0625 393.238281 281.726562 C 393.238281 274.390625 398.128906 269.503906 405.464844 269.503906 L 442.140625 269.503906 L 442.140625 232.828125 C 442.140625 225.492188 447.03125 220.601562 454.363281 220.601562 C 461.699219 220.601562 466.589844 225.492188 466.589844 232.828125 L 466.589844 269.503906 L 503.265625 269.503906 C 510.601562 269.503906 515.488281 274.390625 515.488281 281.726562 C 515.488281 289.0625 510.601562 293.953125 503.265625 293.953125 Z M 503.265625 293.953125 "/>
</g>
<g clip-path="url(#clip2)" clip-rule="nonzero">
<path style=" stroke:none;fill-rule:nonzero;fill:rgb(13.328552%,12.159729%,14.898682%);fill-opacity:1;" d="M 472.355469 609.097656 C 472.40625 607.898438 472.476562 606.707031 472.476562 605.511719 C 472.476562 545.441406 409.558594 496.753906 331.945312 496.753906 C 254.328125 496.753906 191.414062 545.441406 191.414062 605.511719 C 191.414062 606.707031 191.476562 607.898438 191.523438 609.097656 L 472.355469 609.097656 "/>
</g>
<g clip-path="url(#clip3)" clip-rule="nonzero">
<path style=" stroke:none;fill-rule:nonzero;fill:rgb(13.328552%,12.159729%,14.898682%);fill-opacity:1;" d="M 421.261719 390.984375 C 421.261719 440.492188 381.269531 480.621094 331.945312 480.621094 C 282.609375 480.621094 242.621094 440.492188 242.621094 390.984375 C 242.621094 341.484375 282.609375 301.351562 331.945312 301.351562 C 381.269531 301.351562 421.261719 341.484375 421.261719 390.984375 "/>
</g>
</g>
</svg>
