<?xml version="1.0" encoding="UTF-8"?>
<svg xmlns="http://www.w3.org/2000/svg" xmlns:xlink="http://www.w3.org/1999/xlink"  width="50px" height="50px" viewBox="0 0 768 767.999994" version="1.2">
<defs>
<clipPath id="clip1">
  <path d="M 201 425 L 381 425 L 381 606 L 201 606 Z M 201 425 "/>
</clipPath>
<clipPath id="clip2">
  <path d="M 377.726562 406.816406 L 405.082031 650.539062 L 161.359375 677.890625 L 134.007812 434.171875 Z M 377.726562 406.816406 "/>
</clipPath>
<clipPath id="clip3">
  <path d="M 377.726562 406.816406 L 405.082031 650.539062 L 161.359375 677.890625 L 134.007812 434.171875 Z M 377.726562 406.816406 "/>
</clipPath>
<clipPath id="clip4">
  <path d="M 160 555 L 267 555 L 267 673 L 160 673 Z M 160 555 "/>
</clipPath>
<clipPath id="clip5">
  <path d="M 377.726562 406.816406 L 405.082031 650.539062 L 161.359375 677.890625 L 134.007812 434.171875 Z M 377.726562 406.816406 "/>
</clipPath>
<clipPath id="clip6">
  <path d="M 377.726562 406.816406 L 405.082031 650.539062 L 161.359375 677.890625 L 134.007812 434.171875 Z M 377.726562 406.816406 "/>
</clipPath>
<clipPath id="clip7">
  <path d="M 307 476 L 345 476 L 345 567 L 307 567 Z M 307 476 "/>
</clipPath>
<clipPath id="clip8">
  <path d="M 377.726562 406.816406 L 405.082031 650.539062 L 161.359375 677.890625 L 134.007812 434.171875 Z M 377.726562 406.816406 "/>
</clipPath>
<clipPath id="clip9">
  <path d="M 377.726562 406.816406 L 405.082031 650.539062 L 161.359375 677.890625 L 134.007812 434.171875 Z M 377.726562 406.816406 "/>
</clipPath>
<clipPath id="clip10">
  <path d="M 219 292 L 501 292 L 501 408 L 219 408 Z M 219 292 "/>
</clipPath>
<clipPath id="clip11">
  <path d="M 213.34375 99.671875 L 494.542969 94.425781 L 500.277344 401.875 L 219.078125 407.117188 Z M 213.34375 99.671875 "/>
</clipPath>
<clipPath id="clip12">
  <path d="M 213.34375 99.671875 L 494.542969 94.425781 L 500.277344 401.875 L 219.078125 407.117188 Z M 213.34375 99.671875 "/>
</clipPath>
<clipPath id="clip13">
  <path d="M 213.34375 99.671875 L 494.332031 94.429688 L 500.074219 402.183594 L 219.082031 407.421875 Z M 213.34375 99.671875 "/>
</clipPath>
<clipPath id="clip14">
  <path d="M 266 97 L 445 97 L 445 277 L 266 277 Z M 266 97 "/>
</clipPath>
<clipPath id="clip15">
  <path d="M 213.34375 99.671875 L 494.542969 94.425781 L 500.277344 401.875 L 219.078125 407.117188 Z M 213.34375 99.671875 "/>
</clipPath>
<clipPath id="clip16">
  <path d="M 213.34375 99.671875 L 494.542969 94.425781 L 500.277344 401.875 L 219.078125 407.117188 Z M 213.34375 99.671875 "/>
</clipPath>
<clipPath id="clip17">
  <path d="M 213.34375 99.671875 L 494.332031 94.429688 L 500.074219 402.183594 L 219.082031 407.421875 Z M 213.34375 99.671875 "/>
</clipPath>
<clipPath id="clip18">
  <path d="M 383 205 L 692 205 L 692 464 L 383 464 Z M 383 205 "/>
</clipPath>
<clipPath id="clip19">
  <path d="M 381.507812 210.128906 L 688.953125 204.398438 L 693.90625 469.851562 L 386.457031 475.585938 Z M 381.507812 210.128906 "/>
</clipPath>
<clipPath id="clip20">
  <path d="M 381.507812 210.128906 L 688.953125 204.398438 L 693.90625 469.851562 L 386.457031 475.585938 Z M 381.507812 210.128906 "/>
</clipPath>
<clipPath id="clip21">
  <path d="M 406 229 L 669 229 L 669 440 L 406 440 Z M 406 229 "/>
</clipPath>
<clipPath id="clip22">
  <path d="M 381.507812 210.128906 L 688.953125 204.398438 L 693.90625 469.851562 L 386.457031 475.585938 Z M 381.507812 210.128906 "/>
</clipPath>
<clipPath id="clip23">
  <path d="M 381.507812 210.128906 L 688.953125 204.398438 L 693.90625 469.851562 L 386.457031 475.585938 Z M 381.507812 210.128906 "/>
</clipPath>
<clipPath id="clip24">
  <path d="M 484 275 L 597 275 L 597 391 L 484 391 Z M 484 275 "/>
</clipPath>
<clipPath id="clip25">
  <path d="M 381.507812 210.128906 L 688.953125 204.398438 L 693.90625 469.851562 L 386.457031 475.585938 Z M 381.507812 210.128906 "/>
</clipPath>
<clipPath id="clip26">
  <path d="M 381.507812 210.128906 L 688.953125 204.398438 L 693.90625 469.851562 L 386.457031 475.585938 Z M 381.507812 210.128906 "/>
</clipPath>
<clipPath id="clip27">
  <path d="M 437 353 L 487 353 L 487 404 L 437 404 Z M 437 353 "/>
</clipPath>
<clipPath id="clip28">
  <path d="M 381.507812 210.128906 L 688.953125 204.398438 L 693.90625 469.851562 L 386.457031 475.585938 Z M 381.507812 210.128906 "/>
</clipPath>
<clipPath id="clip29">
  <path d="M 381.507812 210.128906 L 688.953125 204.398438 L 693.90625 469.851562 L 386.457031 475.585938 Z M 381.507812 210.128906 "/>
</clipPath>
<clipPath id="clip30">
  <path d="M 591 266 L 641 266 L 641 317 L 591 317 Z M 591 266 "/>
</clipPath>
<clipPath id="clip31">
  <path d="M 381.507812 210.128906 L 688.953125 204.398438 L 693.90625 469.851562 L 386.457031 475.585938 Z M 381.507812 210.128906 "/>
</clipPath>
<clipPath id="clip32">
  <path d="M 381.507812 210.128906 L 688.953125 204.398438 L 693.90625 469.851562 L 386.457031 475.585938 Z M 381.507812 210.128906 "/>
</clipPath>
<clipPath id="clip33">
  <path d="M 511 296 L 568 296 L 568 368 L 511 368 Z M 511 296 "/>
</clipPath>
<clipPath id="clip34">
  <path d="M 381.507812 210.128906 L 688.953125 204.398438 L 693.90625 469.851562 L 386.457031 475.585938 Z M 381.507812 210.128906 "/>
</clipPath>
<clipPath id="clip35">
  <path d="M 381.507812 210.128906 L 688.953125 204.398438 L 693.90625 469.851562 L 386.457031 475.585938 Z M 381.507812 210.128906 "/>
</clipPath>
<clipPath id="clip36">
  <path d="M 450 367 L 470 367 L 470 392 L 450 392 Z M 450 367 "/>
</clipPath>
<clipPath id="clip37">
  <path d="M 381.507812 210.128906 L 688.953125 204.398438 L 693.90625 469.851562 L 386.457031 475.585938 Z M 381.507812 210.128906 "/>
</clipPath>
<clipPath id="clip38">
  <path d="M 381.507812 210.128906 L 688.953125 204.398438 L 693.90625 469.851562 L 386.457031 475.585938 Z M 381.507812 210.128906 "/>
</clipPath>
<clipPath id="clip39">
  <path d="M 607 278 L 627 278 L 627 304 L 607 304 Z M 607 278 "/>
</clipPath>
<clipPath id="clip40">
  <path d="M 381.507812 210.128906 L 688.953125 204.398438 L 693.90625 469.851562 L 386.457031 475.585938 Z M 381.507812 210.128906 "/>
</clipPath>
<clipPath id="clip41">
  <path d="M 381.507812 210.128906 L 688.953125 204.398438 L 693.90625 469.851562 L 386.457031 475.585938 Z M 381.507812 210.128906 "/>
</clipPath>
<clipPath id="clip42">
  <path d="M 403 324 L 677 324 L 677 476 L 403 476 Z M 403 324 "/>
</clipPath>
<clipPath id="clip43">
  <path d="M 381.507812 210.128906 L 688.953125 204.398438 L 693.90625 469.851562 L 386.457031 475.585938 Z M 381.507812 210.128906 "/>
</clipPath>
<clipPath id="clip44">
  <path d="M 381.507812 210.128906 L 688.953125 204.398438 L 693.90625 469.851562 L 386.457031 475.585938 Z M 381.507812 210.128906 "/>
</clipPath>
<clipPath id="clip45">
  <path d="M 419 342 L 662 342 L 662 457 L 419 457 Z M 419 342 "/>
</clipPath>
<clipPath id="clip46">
  <path d="M 381.507812 210.128906 L 688.953125 204.398438 L 693.90625 469.851562 L 386.457031 475.585938 Z M 381.507812 210.128906 "/>
</clipPath>
<clipPath id="clip47">
  <path d="M 381.507812 210.128906 L 688.953125 204.398438 L 693.90625 469.851562 L 386.457031 475.585938 Z M 381.507812 210.128906 "/>
</clipPath>
<clipPath id="clip48">
  <path d="M 488 341 L 599 341 L 599 458 L 488 458 Z M 488 341 "/>
</clipPath>
<clipPath id="clip49">
  <path d="M 381.507812 210.128906 L 688.953125 204.398438 L 693.90625 469.851562 L 386.457031 475.585938 Z M 381.507812 210.128906 "/>
</clipPath>
<clipPath id="clip50">
  <path d="M 381.507812 210.128906 L 688.953125 204.398438 L 693.90625 469.851562 L 386.457031 475.585938 Z M 381.507812 210.128906 "/>
</clipPath>
<clipPath id="clip51">
  <path d="M 428 378 L 477 378 L 477 430 L 428 430 Z M 428 378 "/>
</clipPath>
<clipPath id="clip52">
  <path d="M 381.507812 210.128906 L 688.953125 204.398438 L 693.90625 469.851562 L 386.457031 475.585938 Z M 381.507812 210.128906 "/>
</clipPath>
<clipPath id="clip53">
  <path d="M 381.507812 210.128906 L 688.953125 204.398438 L 693.90625 469.851562 L 386.457031 475.585938 Z M 381.507812 210.128906 "/>
</clipPath>
<clipPath id="clip54">
  <path d="M 605 372 L 654 372 L 654 424 L 605 424 Z M 605 372 "/>
</clipPath>
<clipPath id="clip55">
  <path d="M 381.507812 210.128906 L 688.953125 204.398438 L 693.90625 469.851562 L 386.457031 475.585938 Z M 381.507812 210.128906 "/>
</clipPath>
<clipPath id="clip56">
  <path d="M 381.507812 210.128906 L 688.953125 204.398438 L 693.90625 469.851562 L 386.457031 475.585938 Z M 381.507812 210.128906 "/>
</clipPath>
<clipPath id="clip57">
  <path d="M 522 360 L 565 360 L 565 438 L 522 438 Z M 522 360 "/>
</clipPath>
<clipPath id="clip58">
  <path d="M 381.507812 210.128906 L 688.953125 204.398438 L 693.90625 469.851562 L 386.457031 475.585938 Z M 381.507812 210.128906 "/>
</clipPath>
<clipPath id="clip59">
  <path d="M 381.507812 210.128906 L 688.953125 204.398438 L 693.90625 469.851562 L 386.457031 475.585938 Z M 381.507812 210.128906 "/>
</clipPath>
<clipPath id="clip60">
  <path d="M 444 390 L 459 390 L 459 418 L 444 418 Z M 444 390 "/>
</clipPath>
<clipPath id="clip61">
  <path d="M 381.507812 210.128906 L 688.953125 204.398438 L 693.90625 469.851562 L 386.457031 475.585938 Z M 381.507812 210.128906 "/>
</clipPath>
<clipPath id="clip62">
  <path d="M 381.507812 210.128906 L 688.953125 204.398438 L 693.90625 469.851562 L 386.457031 475.585938 Z M 381.507812 210.128906 "/>
</clipPath>
<clipPath id="clip63">
  <path d="M 624 384 L 639 384 L 639 412 L 624 412 Z M 624 384 "/>
</clipPath>
<clipPath id="clip64">
  <path d="M 381.507812 210.128906 L 688.953125 204.398438 L 693.90625 469.851562 L 386.457031 475.585938 Z M 381.507812 210.128906 "/>
</clipPath>
<clipPath id="clip65">
  <path d="M 381.507812 210.128906 L 688.953125 204.398438 L 693.90625 469.851562 L 386.457031 475.585938 Z M 381.507812 210.128906 "/>
</clipPath>
</defs>
<g id="surface1">
<g clip-path="url(#clip1)" clip-rule="nonzero">
<g clip-path="url(#clip2)" clip-rule="nonzero">
<g clip-path="url(#clip3)" clip-rule="nonzero">
<path style=" stroke:none;fill-rule:nonzero;fill:rgb(13.328552%,12.159729%,14.898682%);fill-opacity:1;" d="M 328.628906 468.28125 C 302.566406 447.484375 264.445312 451.761719 243.640625 477.820312 C 222.84375 503.882812 227.121094 542.007812 253.179688 562.808594 C 279.242188 583.609375 317.363281 579.324219 338.167969 553.269531 C 358.960938 527.210938 354.683594 489.085938 328.628906 468.28125 Z M 234.96875 585.621094 C 196.328125 554.777344 189.984375 498.253906 220.828125 459.609375 C 251.671875 420.964844 308.195312 414.621094 346.835938 445.46875 C 385.476562 476.3125 391.820312 532.839844 360.976562 571.480469 C 330.132812 610.117188 273.609375 616.464844 234.96875 585.621094 "/>
</g>
</g>
</g>
<g clip-path="url(#clip4)" clip-rule="nonzero">
<g clip-path="url(#clip5)" clip-rule="nonzero">
<g clip-path="url(#clip6)" clip-rule="nonzero">
<path style=" stroke:none;fill-rule:nonzero;fill:rgb(13.328552%,12.159729%,14.898682%);fill-opacity:1;" d="M 229.078125 555.125 L 165.765625 634.4375 C 157.628906 644.640625 159.296875 659.507812 169.496094 667.648438 C 179.695312 675.789062 194.566406 674.121094 202.707031 663.921875 L 266.015625 584.605469 L 229.078125 555.125 "/>
</g>
</g>
</g>
<g clip-path="url(#clip7)" clip-rule="nonzero">
<g clip-path="url(#clip8)" clip-rule="nonzero">
<g clip-path="url(#clip9)" clip-rule="nonzero">
<path style=" stroke:none;fill-rule:nonzero;fill:rgb(13.328552%,12.159729%,14.898682%);fill-opacity:1;" d="M 332.769531 480.585938 C 328.589844 475.203125 322.003906 476 319.097656 480.257812 C 316.144531 484.597656 319.257812 491.496094 320.863281 495.957031 C 324.523438 506.085938 326.222656 524.121094 323.1875 534.367188 C 321.609375 539.703125 318.152344 548.296875 315.007812 552.84375 C 312.757812 556.097656 309.050781 559.40625 308.101562 563.378906 C 306.074219 571.902344 321.183594 560.46875 323.023438 558.996094 C 332.046875 551.753906 340.96875 539.210938 343.226562 527.886719 C 346.097656 513.441406 343.019531 493.800781 332.769531 480.585938 "/>
</g>
</g>
</g>
<g clip-path="url(#clip10)" clip-rule="nonzero">
<g clip-path="url(#clip11)" clip-rule="nonzero">
<g clip-path="url(#clip12)" clip-rule="nonzero">
<g clip-path="url(#clip13)" clip-rule="nonzero">
<path style=" stroke:none;fill-rule:nonzero;fill:rgb(13.328552%,12.159729%,14.898682%);fill-opacity:1;" d="M 500.011719 402.152344 C 500.039062 400.953125 500.085938 399.761719 500.0625 398.566406 C 498.941406 338.503906 435.128906 291 357.53125 292.445312 C 279.925781 293.894531 217.929688 343.746094 219.050781 403.804688 C 219.070312 405.003906 219.160156 406.191406 219.226562 407.390625 L 500.011719 402.152344 "/>
</g>
</g>
</g>
</g>
<g clip-path="url(#clip14)" clip-rule="nonzero">
<g clip-path="url(#clip15)" clip-rule="nonzero">
<g clip-path="url(#clip16)" clip-rule="nonzero">
<g clip-path="url(#clip17)" clip-rule="nonzero">
<path style=" stroke:none;fill-rule:nonzero;fill:rgb(13.328552%,12.159729%,14.898682%);fill-opacity:1;" d="M 444.859375 185.03125 C 445.78125 234.53125 406.546875 275.398438 357.230469 276.320312 C 307.902344 277.238281 267.171875 237.859375 266.246094 188.363281 C 265.324219 138.871094 304.558594 98 353.886719 97.082031 C 403.203125 96.160156 443.933594 135.539062 444.859375 185.03125 "/>
</g>
</g>
</g>
</g>
<g clip-path="url(#clip18)" clip-rule="nonzero">
<g clip-path="url(#clip19)" clip-rule="nonzero">
<g clip-path="url(#clip20)" clip-rule="nonzero">
<path style=" stroke:none;fill-rule:nonzero;fill:rgb(14.509583%,39.608765%,18.429565%);fill-opacity:1;" d="M 691.359375 333.789062 L 454 463.339844 L 383.847656 335.269531 L 621.207031 205.71875 L 691.359375 333.789062 "/>
</g>
</g>
</g>
<g clip-path="url(#clip21)" clip-rule="nonzero">
<g clip-path="url(#clip22)" clip-rule="nonzero">
<g clip-path="url(#clip23)" clip-rule="nonzero">
<path style=" stroke:none;fill-rule:nonzero;fill:rgb(49.409485%,85.099792%,34.118652%);fill-opacity:1;" d="M 668.988281 325.296875 L 458.914062 439.957031 L 406.21875 343.757812 L 616.292969 229.09375 L 668.988281 325.296875 "/>
</g>
</g>
</g>
<g clip-path="url(#clip24)" clip-rule="nonzero">
<g clip-path="url(#clip25)" clip-rule="nonzero">
<g clip-path="url(#clip26)" clip-rule="nonzero">
<path style=" stroke:none;fill-rule:nonzero;fill:rgb(14.509583%,39.608765%,18.429565%);fill-opacity:1;" d="M 589.035156 306.460938 C 604.460938 334.621094 595.253906 369.292969 568.472656 383.910156 C 541.691406 398.53125 507.480469 387.550781 492.050781 359.390625 C 476.628906 331.226562 485.835938 296.550781 512.613281 281.929688 C 539.394531 267.316406 573.609375 278.296875 589.035156 306.460938 "/>
</g>
</g>
</g>
<g clip-path="url(#clip27)" clip-rule="nonzero">
<g clip-path="url(#clip28)" clip-rule="nonzero">
<g clip-path="url(#clip29)" clip-rule="nonzero">
<path style=" stroke:none;fill-rule:nonzero;fill:rgb(14.509583%,39.608765%,18.429565%);fill-opacity:1;" d="M 482.957031 367.210938 C 489.671875 379.464844 485.664062 394.558594 474.011719 400.917969 C 462.359375 407.277344 447.46875 402.5 440.75 390.246094 C 434.039062 377.992188 438.046875 362.898438 449.703125 356.535156 C 461.355469 350.175781 476.246094 354.953125 482.957031 367.210938 "/>
</g>
</g>
</g>
<g clip-path="url(#clip30)" clip-rule="nonzero">
<g clip-path="url(#clip31)" clip-rule="nonzero">
<g clip-path="url(#clip32)" clip-rule="nonzero">
<path style=" stroke:none;fill-rule:nonzero;fill:rgb(14.509583%,39.608765%,18.429565%);fill-opacity:1;" d="M 637.003906 280.277344 C 643.714844 292.53125 639.707031 307.625 628.058594 313.984375 C 616.402344 320.34375 601.511719 315.566406 594.796875 303.3125 C 588.085938 291.054688 592.09375 275.964844 603.746094 269.605469 C 615.402344 263.246094 630.289062 268.019531 637.003906 280.277344 "/>
</g>
</g>
</g>
<g clip-path="url(#clip33)" clip-rule="nonzero">
<g clip-path="url(#clip34)" clip-rule="nonzero">
<g clip-path="url(#clip35)" clip-rule="nonzero">
<path style=" stroke:none;fill-rule:nonzero;fill:rgb(49.409485%,85.099792%,34.118652%);fill-opacity:1;" d="M 549.425781 310.890625 L 535.160156 318.671875 L 533.867188 316.3125 C 532.492188 313.796875 531.425781 312.246094 530.671875 311.648438 C 529.914062 311.054688 528.996094 311.054688 527.914062 311.644531 C 527.042969 312.121094 526.574219 312.808594 526.507812 313.714844 C 526.433594 314.621094 526.769531 315.746094 527.5 317.089844 C 528.726562 319.320312 530.027344 320.632812 531.414062 321.042969 C 532.773438 321.457031 536.289062 321.796875 541.964844 322.054688 C 546.789062 322.265625 550.175781 322.585938 552.132812 323.03125 C 554.085938 323.476562 556.097656 324.507812 558.167969 326.144531 C 560.238281 327.777344 562.144531 330.179688 563.882812 333.347656 C 566.660156 338.421875 567.617188 343.074219 566.753906 347.300781 C 565.890625 351.527344 563.191406 355.3125 558.671875 358.671875 L 561.605469 364.027344 L 555.039062 367.609375 L 552.007812 362.074219 C 547.988281 363.78125 543.855469 364.140625 539.613281 363.144531 C 535.367188 362.148438 531.507812 358.480469 528.035156 352.136719 L 526.511719 349.347656 L 540.777344 341.566406 L 542.6875 345.058594 C 544.785156 348.886719 546.230469 351.183594 547.035156 351.949219 C 547.839844 352.71875 548.804688 352.792969 549.933594 352.175781 C 550.898438 351.648438 551.441406 350.9375 551.554688 350.035156 C 551.671875 349.132812 551.382812 348.042969 550.691406 346.773438 C 548.941406 343.582031 547.464844 341.417969 546.265625 340.285156 C 545.0625 339.15625 542.714844 338.492188 539.210938 338.296875 C 533.367188 337.949219 529.308594 337.5625 527.042969 337.136719 C 524.773438 336.710938 522.4375 335.648438 520.019531 333.945312 C 517.605469 332.242188 515.589844 329.921875 513.980469 326.984375 C 511.652344 322.734375 511.03125 318.734375 512.121094 315 C 513.207031 311.265625 516.011719 307.796875 520.523438 304.601562 L 518.035156 300.050781 L 524.601562 296.46875 L 527.089844 301.011719 C 531.800781 299.175781 535.90625 298.855469 539.402344 300.039062 C 542.898438 301.230469 545.796875 303.929688 548.097656 308.132812 C 548.421875 308.722656 548.859375 309.640625 549.425781 310.890625 "/>
</g>
</g>
</g>
<g clip-path="url(#clip36)" clip-rule="nonzero">
<g clip-path="url(#clip37)" clip-rule="nonzero">
<g clip-path="url(#clip38)" clip-rule="nonzero">
<path style=" stroke:none;fill-rule:nonzero;fill:rgb(49.409485%,85.099792%,34.118652%);fill-opacity:1;" d="M 463.859375 372.179688 L 458.964844 374.847656 L 458.519531 374.039062 C 458.046875 373.175781 457.679688 372.648438 457.421875 372.4375 C 457.164062 372.230469 456.847656 372.234375 456.476562 372.433594 C 456.175781 372.597656 456.015625 372.839844 455.996094 373.152344 C 455.972656 373.460938 456.085938 373.84375 456.335938 374.300781 C 456.757812 375.070312 457.203125 375.519531 457.675781 375.664062 C 458.148438 375.804688 459.351562 375.917969 461.296875 376.007812 C 462.953125 376.082031 464.117188 376.191406 464.789062 376.339844 C 465.457031 376.496094 466.148438 376.851562 466.855469 377.410156 C 467.566406 377.96875 468.222656 378.792969 468.816406 379.886719 C 469.769531 381.625 470.097656 383.21875 469.800781 384.667969 C 469.503906 386.117188 468.582031 387.421875 467.03125 388.570312 L 468.035156 390.40625 L 465.785156 391.636719 L 464.746094 389.738281 C 463.363281 390.324219 461.949219 390.445312 460.492188 390.101562 C 459.035156 389.761719 457.710938 388.503906 456.515625 386.328125 L 455.992188 385.375 L 460.886719 382.699219 L 461.542969 383.898438 C 462.265625 385.214844 462.761719 386 463.039062 386.265625 C 463.3125 386.53125 463.644531 386.554688 464.03125 386.34375 C 464.363281 386.160156 464.546875 385.917969 464.589844 385.609375 C 464.625 385.296875 464.527344 384.921875 464.292969 384.488281 C 463.691406 383.394531 463.183594 382.652344 462.769531 382.261719 C 462.359375 381.875 461.554688 381.648438 460.355469 381.578125 C 458.347656 381.464844 456.957031 381.328125 456.179688 381.183594 C 455.398438 381.035156 454.597656 380.671875 453.769531 380.082031 C 452.941406 379.503906 452.25 378.707031 451.699219 377.699219 C 450.898438 376.242188 450.6875 374.867188 451.058594 373.589844 C 451.429688 372.304688 452.394531 371.113281 453.941406 370.023438 L 453.085938 368.460938 L 455.339844 367.230469 L 456.195312 368.792969 C 457.8125 368.160156 459.21875 368.046875 460.417969 368.457031 C 461.617188 368.863281 462.613281 369.789062 463.402344 371.234375 C 463.511719 371.433594 463.664062 371.75 463.859375 372.179688 "/>
</g>
</g>
</g>
<g clip-path="url(#clip39)" clip-rule="nonzero">
<g clip-path="url(#clip40)" clip-rule="nonzero">
<g clip-path="url(#clip41)" clip-rule="nonzero">
<path style=" stroke:none;fill-rule:nonzero;fill:rgb(49.409485%,85.099792%,34.118652%);fill-opacity:1;" d="M 620.734375 283.703125 L 615.835938 286.375 L 615.394531 285.5625 C 614.921875 284.695312 614.554688 284.167969 614.296875 283.960938 C 614.039062 283.753906 613.722656 283.757812 613.351562 283.957031 C 613.050781 284.121094 612.894531 284.359375 612.867188 284.671875 C 612.847656 284.980469 612.957031 285.367188 613.210938 285.824219 C 613.628906 286.59375 614.078125 287.046875 614.550781 287.183594 C 615.015625 287.332031 616.226562 287.441406 618.171875 287.527344 C 619.828125 287.601562 620.988281 287.714844 621.664062 287.863281 C 622.332031 288.019531 623.023438 288.375 623.734375 288.933594 C 624.441406 289.496094 625.097656 290.316406 625.691406 291.40625 C 626.644531 293.148438 626.972656 294.742188 626.675781 296.191406 C 626.378906 297.640625 625.457031 298.945312 623.90625 300.09375 L 624.910156 301.929688 L 622.65625 303.160156 L 621.621094 301.261719 C 620.238281 301.847656 618.824219 301.96875 617.363281 301.625 C 615.910156 301.285156 614.585938 300.023438 613.394531 297.851562 L 612.871094 296.898438 L 617.761719 294.226562 L 618.421875 295.421875 C 619.140625 296.734375 619.636719 297.523438 619.910156 297.785156 C 620.1875 298.050781 620.519531 298.074219 620.90625 297.863281 C 621.238281 297.6875 621.425781 297.441406 621.464844 297.128906 C 621.5 296.820312 621.40625 296.445312 621.164062 296.011719 C 620.5625 294.917969 620.058594 294.175781 619.648438 293.78125 C 619.230469 293.398438 618.429688 293.171875 617.226562 293.101562 C 615.222656 292.984375 613.832031 292.851562 613.054688 292.703125 C 612.277344 292.558594 611.472656 292.191406 610.644531 291.609375 C 609.816406 291.023438 609.125 290.230469 608.574219 289.222656 C 607.773438 287.765625 607.558594 286.390625 607.933594 285.113281 C 608.304688 283.828125 609.265625 282.636719 610.816406 281.546875 L 609.960938 279.980469 L 612.214844 278.753906 L 613.070312 280.316406 C 614.6875 279.679688 616.09375 279.570312 617.292969 279.980469 C 618.492188 280.382812 619.488281 281.3125 620.277344 282.757812 C 620.386719 282.957031 620.539062 283.269531 620.734375 283.703125 "/>
</g>
</g>
</g>
<g clip-path="url(#clip42)" clip-rule="nonzero">
<g clip-path="url(#clip43)" clip-rule="nonzero">
<g clip-path="url(#clip44)" clip-rule="nonzero">
<path style=" stroke:none;fill-rule:nonzero;fill:rgb(14.509583%,39.608765%,18.429565%);fill-opacity:1;" d="M 676.90625 470.195312 L 406.433594 475.238281 L 403.714844 329.292969 L 674.183594 324.25 L 676.90625 470.195312 "/>
</g>
</g>
</g>
<g clip-path="url(#clip45)" clip-rule="nonzero">
<g clip-path="url(#clip46)" clip-rule="nonzero">
<g clip-path="url(#clip47)" clip-rule="nonzero">
<path style=" stroke:none;fill-rule:nonzero;fill:rgb(49.409485%,85.099792%,34.118652%);fill-opacity:1;" d="M 661.023438 452.328125 L 421.640625 456.792969 L 419.597656 347.164062 L 658.980469 342.699219 L 661.023438 452.328125 "/>
</g>
</g>
</g>
<g clip-path="url(#clip48)" clip-rule="nonzero">
<g clip-path="url(#clip49)" clip-rule="nonzero">
<g clip-path="url(#clip50)" clip-rule="nonzero">
<path style=" stroke:none;fill-rule:nonzero;fill:rgb(14.509583%,39.608765%,18.429565%);fill-opacity:1;" d="M 598.914062 398.652344 C 599.515625 430.746094 575.261719 457.21875 544.746094 457.789062 C 514.230469 458.359375 489.003906 432.804688 488.40625 400.714844 C 487.804688 368.621094 512.0625 342.148438 542.578125 341.578125 C 573.09375 341.007812 598.316406 366.558594 598.914062 398.652344 "/>
</g>
</g>
</g>
<g clip-path="url(#clip51)" clip-rule="nonzero">
<g clip-path="url(#clip52)" clip-rule="nonzero">
<g clip-path="url(#clip53)" clip-rule="nonzero">
<path style=" stroke:none;fill-rule:nonzero;fill:rgb(14.509583%,39.608765%,18.429565%);fill-opacity:1;" d="M 476.714844 403.4375 C 476.976562 417.40625 466.421875 428.925781 453.140625 429.171875 C 439.863281 429.421875 428.882812 418.300781 428.621094 404.332031 C 428.363281 390.367188 438.917969 378.851562 452.199219 378.601562 C 465.480469 378.355469 476.453125 389.472656 476.714844 403.4375 "/>
</g>
</g>
</g>
<g clip-path="url(#clip54)" clip-rule="nonzero">
<g clip-path="url(#clip55)" clip-rule="nonzero">
<g clip-path="url(#clip56)" clip-rule="nonzero">
<path style=" stroke:none;fill-rule:nonzero;fill:rgb(14.509583%,39.608765%,18.429565%);fill-opacity:1;" d="M 653.574219 397.632812 C 653.835938 411.597656 643.28125 423.121094 630.003906 423.367188 C 616.722656 423.617188 605.742188 412.496094 605.484375 398.53125 C 605.222656 384.566406 615.777344 373.046875 629.058594 372.796875 C 642.339844 372.550781 653.316406 383.667969 653.574219 397.632812 "/>
</g>
</g>
</g>
<g clip-path="url(#clip57)" clip-rule="nonzero">
<g clip-path="url(#clip58)" clip-rule="nonzero">
<g clip-path="url(#clip59)" clip-rule="nonzero">
<path style=" stroke:none;fill-rule:nonzero;fill:rgb(49.409485%,85.099792%,34.118652%);fill-opacity:1;" d="M 561.757812 384.261719 L 545.503906 384.566406 L 545.453125 381.875 C 545.398438 379.007812 545.175781 377.140625 544.785156 376.261719 C 544.394531 375.386719 543.578125 374.960938 542.347656 374.984375 C 541.355469 375 540.617188 375.398438 540.136719 376.167969 C 539.652344 376.941406 539.425781 378.09375 539.453125 379.617188 C 539.503906 382.15625 540.042969 383.929688 541.085938 384.929688 C 542.097656 385.925781 545.054688 387.855469 549.964844 390.707031 C 554.140625 393.121094 556.992188 394.976562 558.519531 396.277344 C 560.046875 397.570312 561.351562 399.425781 562.429688 401.828125 C 563.503906 404.226562 564.078125 407.238281 564.144531 410.851562 C 564.253906 416.636719 562.941406 421.199219 560.214844 424.542969 C 557.484375 427.890625 553.339844 430.003906 547.777344 430.882812 L 547.890625 436.988281 L 540.40625 437.128906 L 540.289062 430.820312 C 535.9375 430.472656 532.109375 428.875 528.808594 426.03125 C 525.511719 423.191406 523.796875 418.152344 523.660156 410.921875 L 523.601562 407.753906 L 539.851562 407.453125 L 539.925781 411.421875 C 540.007812 415.789062 540.226562 418.496094 540.582031 419.546875 C 540.9375 420.601562 541.761719 421.113281 543.046875 421.089844 C 544.144531 421.070312 544.957031 420.6875 545.480469 419.933594 C 546.003906 419.1875 546.25 418.097656 546.222656 416.648438 C 546.152344 413.007812 545.851562 410.410156 545.3125 408.851562 C 544.773438 407.296875 542.996094 405.621094 539.984375 403.832031 C 534.96875 400.820312 531.550781 398.601562 529.742188 397.175781 C 527.929688 395.746094 526.351562 393.722656 525 391.09375 C 523.648438 388.46875 522.941406 385.480469 522.878906 382.136719 C 522.789062 377.292969 524.09375 373.460938 526.789062 370.652344 C 529.492188 367.84375 533.582031 366.066406 539.066406 365.324219 L 538.96875 360.140625 L 546.457031 360 L 546.550781 365.183594 C 551.578125 365.730469 555.363281 367.339844 557.910156 370.011719 C 560.453125 372.683594 561.773438 376.414062 561.863281 381.207031 C 561.875 381.878906 561.839844 382.894531 561.757812 384.261719 "/>
</g>
</g>
</g>
<g clip-path="url(#clip60)" clip-rule="nonzero">
<g clip-path="url(#clip61)" clip-rule="nonzero">
<g clip-path="url(#clip62)" clip-rule="nonzero">
<path style=" stroke:none;fill-rule:nonzero;fill:rgb(49.409485%,85.099792%,34.118652%);fill-opacity:1;" d="M 457.484375 399.007812 L 451.910156 399.109375 L 451.894531 398.1875 C 451.875 397.203125 451.796875 396.566406 451.660156 396.261719 C 451.527344 395.960938 451.25 395.816406 450.824219 395.824219 C 450.484375 395.828125 450.230469 395.964844 450.066406 396.230469 C 449.902344 396.492188 449.824219 396.890625 449.832031 397.414062 C 449.847656 398.285156 450.035156 398.890625 450.390625 399.238281 C 450.738281 399.578125 451.753906 400.238281 453.4375 401.222656 C 454.871094 402.046875 455.847656 402.683594 456.375 403.128906 C 456.898438 403.574219 457.34375 404.207031 457.714844 405.035156 C 458.085938 405.859375 458.28125 406.886719 458.304688 408.132812 C 458.34375 410.113281 457.890625 411.675781 456.957031 412.828125 C 456.019531 413.976562 454.59375 414.699219 452.6875 415.003906 L 452.726562 417.097656 L 450.160156 417.144531 L 450.117188 414.980469 C 448.625 414.863281 447.3125 414.3125 446.183594 413.339844 C 445.046875 412.363281 444.460938 410.636719 444.414062 408.152344 L 444.394531 407.066406 L 449.96875 406.964844 L 449.996094 408.324219 C 450.023438 409.820312 450.097656 410.753906 450.222656 411.117188 C 450.339844 411.472656 450.621094 411.648438 451.0625 411.640625 C 451.441406 411.636719 451.71875 411.503906 451.898438 411.25 C 452.078125 410.992188 452.164062 410.617188 452.152344 410.117188 C 452.128906 408.867188 452.023438 407.980469 451.839844 407.441406 C 451.660156 406.910156 451.046875 406.335938 450.015625 405.714844 C 448.292969 404.6875 447.121094 403.925781 446.503906 403.4375 C 445.875 402.949219 445.335938 402.253906 444.875 401.347656 C 444.410156 400.449219 444.167969 399.421875 444.148438 398.277344 C 444.117188 396.617188 444.5625 395.300781 445.488281 394.335938 C 446.414062 393.375 447.816406 392.765625 449.699219 392.511719 L 449.667969 390.734375 L 452.234375 390.683594 L 452.265625 392.464844 C 453.992188 392.652344 455.289062 393.203125 456.164062 394.117188 C 457.039062 395.035156 457.492188 396.3125 457.519531 397.960938 C 457.527344 398.191406 457.507812 398.535156 457.484375 399.007812 "/>
</g>
</g>
</g>
<g clip-path="url(#clip63)" clip-rule="nonzero">
<g clip-path="url(#clip64)" clip-rule="nonzero">
<g clip-path="url(#clip65)" clip-rule="nonzero">
<path style=" stroke:none;fill-rule:nonzero;fill:rgb(49.409485%,85.099792%,34.118652%);fill-opacity:1;" d="M 637.570312 393.140625 L 631.992188 393.242188 L 631.976562 392.324219 C 631.957031 391.335938 631.878906 390.699219 631.746094 390.398438 C 631.609375 390.101562 631.332031 389.953125 630.90625 389.960938 C 630.566406 389.96875 630.316406 390.101562 630.148438 390.367188 C 629.984375 390.628906 629.90625 391.023438 629.917969 391.546875 C 629.933594 392.417969 630.121094 393.03125 630.476562 393.371094 C 630.820312 393.714844 631.839844 394.371094 633.523438 395.351562 C 634.957031 396.179688 635.9375 396.816406 636.457031 397.261719 C 636.980469 397.710938 637.429688 398.34375 637.796875 399.164062 C 638.167969 399.992188 638.363281 401.027344 638.386719 402.265625 C 638.425781 404.25 637.972656 405.816406 637.039062 406.960938 C 636.101562 408.109375 634.679688 408.832031 632.773438 409.136719 L 632.8125 411.230469 L 630.242188 411.28125 L 630.203125 409.117188 C 628.710938 408.996094 627.398438 408.453125 626.265625 407.472656 C 625.132812 406.5 624.542969 404.769531 624.5 402.292969 L 624.476562 401.199219 L 630.054688 401.097656 L 630.078125 402.464844 C 630.105469 403.953125 630.183594 404.886719 630.304688 405.246094 C 630.425781 405.605469 630.707031 405.785156 631.148438 405.777344 C 631.527344 405.769531 631.804688 405.636719 631.984375 405.382812 C 632.164062 405.128906 632.25 404.75 632.238281 404.25 C 632.214844 403 632.109375 402.113281 631.925781 401.578125 C 631.742188 401.042969 631.132812 400.46875 630.097656 399.855469 C 628.375 398.820312 627.207031 398.058594 626.585938 397.570312 C 625.960938 397.082031 625.421875 396.386719 624.957031 395.484375 C 624.496094 394.585938 624.25 393.5625 624.226562 392.410156 C 624.199219 390.75 624.648438 389.4375 625.574219 388.472656 C 626.5 387.511719 627.902344 386.902344 629.785156 386.644531 L 629.75 384.867188 L 632.320312 384.816406 L 632.351562 386.597656 C 634.078125 386.785156 635.375 387.335938 636.246094 388.253906 C 637.121094 389.167969 637.574219 390.453125 637.601562 392.09375 C 637.605469 392.324219 637.597656 392.671875 637.570312 393.140625 "/>
</g>
</g>
</g>
</g>
</svg>
