<?xml version="1.0" encoding="UTF-8"?>
<svg xmlns="http://www.w3.org/2000/svg" xmlns:xlink="http://www.w3.org/1999/xlink"  width="50px" height="50px" viewBox="0 0 768 767.999994" version="1.2">
<defs>
<clipPath id="clip1">
  <path d="M 217.925781 290 L 498.964844 290 L 498.964844 402.714844 L 217.925781 402.714844 Z M 217.925781 290 "/>
</clipPath>
<clipPath id="clip2">
  <path d="M 269 95.214844 L 448 95.214844 L 448 275 L 269 275 Z M 269 95.214844 "/>
</clipPath>
<clipPath id="clip3">
  <path d="M 384 208.792969 L 691.5 208.792969 L 691.5 464 L 384 464 Z M 384 208.792969 "/>
</clipPath>
<clipPath id="clip4">
  <path d="M 403 328 L 675 328 L 675 474.292969 L 403 474.292969 Z M 403 328 "/>
</clipPath>
<clipPath id="clip5">
  <path d="M 179.238281 435 L 439 435 L 439 608.9375 L 179.238281 608.9375 Z M 179.238281 435 "/>
</clipPath>
</defs>
<g id="surface1">
<g clip-path="url(#clip1)" clip-rule="nonzero">
<path style=" stroke:none;fill-rule:nonzero;fill:rgb(13.328552%,12.159729%,14.898682%);fill-opacity:1;" d="M 498.902344 402.988281 C 498.953125 401.792969 499.019531 400.601562 499.019531 399.402344 C 499.019531 339.332031 436.105469 290.648438 358.492188 290.648438 C 280.875 290.648438 217.957031 339.332031 217.957031 399.402344 C 217.957031 400.601562 218.023438 401.792969 218.070312 402.988281 L 498.902344 402.988281 "/>
</g>
<g clip-path="url(#clip2)" clip-rule="nonzero">
<path style=" stroke:none;fill-rule:nonzero;fill:rgb(13.328552%,12.159729%,14.898682%);fill-opacity:1;" d="M 447.804688 184.878906 C 447.804688 234.386719 407.816406 274.515625 358.492188 274.515625 C 309.15625 274.515625 269.164062 234.386719 269.164062 184.878906 C 269.164062 135.378906 309.15625 95.246094 358.492188 95.246094 C 407.816406 95.246094 447.804688 135.378906 447.804688 184.878906 "/>
</g>
<g clip-path="url(#clip3)" clip-rule="nonzero">
<path style=" stroke:none;fill-rule:nonzero;fill:rgb(14.509583%,39.608765%,18.429565%);fill-opacity:1;" d="M 691.492188 338.207031 L 451.757812 463.308594 L 384.003906 333.953125 L 623.738281 208.847656 L 691.492188 338.207031 "/>
</g>
<path style=" stroke:none;fill-rule:nonzero;fill:rgb(49.409485%,85.099792%,34.118652%);fill-opacity:1;" d="M 669.28125 329.300781 L 457.109375 440.023438 L 406.214844 342.855469 L 618.386719 232.132812 L 669.28125 329.300781 "/>
<path style=" stroke:none;fill-rule:nonzero;fill:rgb(14.509583%,39.608765%,18.429565%);fill-opacity:1;" d="M 589.695312 308.972656 C 604.589844 337.414062 594.738281 371.914062 567.691406 386.027344 C 540.644531 400.144531 506.640625 388.53125 491.742188 360.089844 C 476.84375 331.640625 486.699219 297.140625 513.742188 283.023438 C 540.792969 268.914062 574.796875 280.527344 589.695312 308.972656 "/>
<path style=" stroke:none;fill-rule:nonzero;fill:rgb(14.509583%,39.608765%,18.429565%);fill-opacity:1;" d="M 482.503906 367.734375 C 488.984375 380.113281 484.699219 395.132812 472.929688 401.269531 C 461.160156 407.414062 446.359375 402.355469 439.875 389.980469 C 433.390625 377.605469 437.679688 362.589844 449.453125 356.445312 C 461.222656 350.300781 476.019531 355.355469 482.503906 367.734375 "/>
<path style=" stroke:none;fill-rule:nonzero;fill:rgb(14.509583%,39.608765%,18.429565%);fill-opacity:1;" d="M 638.140625 283.691406 C 644.625 296.066406 640.335938 311.082031 628.570312 317.222656 C 616.796875 323.363281 602 318.3125 595.515625 305.933594 C 589.03125 293.550781 593.320312 278.542969 605.089844 272.398438 C 616.863281 266.257812 631.660156 271.308594 638.140625 283.691406 "/>
<path style=" stroke:none;fill-rule:nonzero;fill:rgb(49.409485%,85.099792%,34.118652%);fill-opacity:1;" d="M 550.007812 312.664062 L 535.601562 320.179688 L 534.355469 317.796875 C 533.023438 315.257812 531.988281 313.683594 531.242188 313.074219 C 530.5 312.464844 529.582031 312.445312 528.488281 313.015625 C 527.609375 313.476562 527.125 314.15625 527.042969 315.0625 C 526.953125 315.96875 527.269531 317.097656 527.972656 318.453125 C 529.15625 320.707031 530.433594 322.042969 531.8125 322.480469 C 533.164062 322.921875 536.671875 323.328125 542.34375 323.6875 C 547.160156 323.988281 550.542969 324.371094 552.488281 324.855469 C 554.433594 325.335938 556.425781 326.40625 558.464844 328.078125 C 560.507812 329.75 562.367188 332.1875 564.046875 335.390625 C 566.730469 340.515625 567.597656 345.179688 566.65625 349.394531 C 565.710938 353.601562 562.945312 357.335938 558.363281 360.609375 L 561.195312 366.019531 L 554.566406 369.480469 L 551.636719 363.886719 C 547.585938 365.519531 543.449219 365.800781 539.226562 364.730469 C 535 363.652344 531.207031 359.910156 527.851562 353.503906 L 526.382812 350.691406 L 540.789062 343.175781 L 542.636719 346.699219 C 544.660156 350.566406 546.0625 352.890625 546.855469 353.671875 C 547.644531 354.457031 548.605469 354.546875 549.746094 353.949219 C 550.722656 353.441406 551.277344 352.742188 551.410156 351.839844 C 551.542969 350.941406 551.273438 349.847656 550.605469 348.566406 C 548.914062 345.34375 547.480469 343.152344 546.300781 341.996094 C 545.121094 340.84375 542.785156 340.136719 539.285156 339.878906 C 533.449219 339.421875 529.398438 338.957031 527.140625 338.492188 C 524.882812 338.023438 522.566406 336.914062 520.179688 335.167969 C 517.796875 333.417969 515.824219 331.0625 514.269531 328.09375 C 512.019531 323.800781 511.476562 319.792969 512.632812 316.078125 C 513.792969 312.363281 516.65625 308.949219 521.230469 305.839844 L 518.828125 301.242188 L 525.460938 297.78125 L 527.863281 302.371094 C 532.605469 300.625 536.714844 300.378906 540.1875 301.628906 C 543.660156 302.886719 546.511719 305.636719 548.734375 309.882812 C 549.042969 310.476562 549.46875 311.402344 550.007812 312.664062 "/>
<path style=" stroke:none;fill-rule:nonzero;fill:rgb(49.409485%,85.099792%,34.118652%);fill-opacity:1;" d="M 463.3125 372.347656 L 458.371094 374.921875 L 457.941406 374.109375 C 457.484375 373.234375 457.128906 372.699219 456.871094 372.488281 C 456.621094 372.273438 456.304688 372.273438 455.929688 372.464844 C 455.625 372.625 455.460938 372.863281 455.4375 373.171875 C 455.402344 373.484375 455.511719 373.867188 455.753906 374.332031 C 456.160156 375.105469 456.597656 375.5625 457.070312 375.714844 C 457.535156 375.867188 458.738281 376 460.683594 376.128906 C 462.335938 376.234375 463.496094 376.363281 464.164062 376.523438 C 464.832031 376.691406 465.515625 377.0625 466.214844 377.636719 C 466.914062 378.207031 467.550781 379.039062 468.128906 380.144531 C 469.050781 381.902344 469.347656 383.503906 469.023438 384.945312 C 468.699219 386.390625 467.753906 387.675781 466.179688 388.792969 L 467.152344 390.648438 L 464.878906 391.839844 L 463.871094 389.921875 C 462.480469 390.476562 461.0625 390.574219 459.613281 390.207031 C 458.164062 389.835938 456.863281 388.554688 455.710938 386.359375 L 455.203125 385.394531 L 460.148438 382.8125 L 460.78125 384.019531 C 461.476562 385.347656 461.960938 386.144531 462.234375 386.414062 C 462.5 386.6875 462.832031 386.714844 463.222656 386.511719 C 463.558594 386.335938 463.746094 386.097656 463.792969 385.789062 C 463.835938 385.476562 463.746094 385.101562 463.519531 384.664062 C 462.9375 383.558594 462.445312 382.804688 462.039062 382.410156 C 461.636719 382.015625 460.835938 381.773438 459.636719 381.679688 C 457.632812 381.527344 456.242188 381.367188 455.46875 381.207031 C 454.691406 381.046875 453.894531 380.664062 453.078125 380.0625 C 452.261719 379.46875 451.585938 378.65625 451.054688 377.636719 C 450.28125 376.171875 450.09375 374.789062 450.492188 373.519531 C 450.886719 372.242188 451.871094 371.070312 453.441406 370.007812 L 452.613281 368.429688 L 454.890625 367.242188 L 455.714844 368.816406 C 457.34375 368.214844 458.753906 368.128906 459.945312 368.5625 C 461.136719 368.992188 462.113281 369.933594 462.875 371.394531 C 462.984375 371.597656 463.128906 371.914062 463.3125 372.347656 "/>
<path style=" stroke:none;fill-rule:nonzero;fill:rgb(49.409485%,85.099792%,34.118652%);fill-opacity:1;" d="M 621.8125 286.8125 L 616.867188 289.390625 L 616.441406 288.570312 C 615.984375 287.695312 615.628906 287.160156 615.371094 286.949219 C 615.117188 286.738281 614.800781 286.734375 614.425781 286.929688 C 614.125 287.085938 613.960938 287.320312 613.929688 287.632812 C 613.902344 287.941406 614.007812 288.332031 614.25 288.792969 C 614.65625 289.566406 615.09375 290.03125 615.566406 290.175781 C 616.027344 290.332031 617.234375 290.464844 619.179688 290.589844 C 620.832031 290.695312 621.992188 290.828125 622.664062 290.988281 C 623.328125 291.15625 624.011719 291.523438 624.714844 292.097656 C 625.410156 292.671875 626.050781 293.507812 626.625 294.605469 C 627.546875 296.363281 627.84375 297.964844 627.519531 299.410156 C 627.195312 300.851562 626.25 302.136719 624.675781 303.257812 L 625.648438 305.113281 L 623.371094 306.300781 L 622.371094 304.382812 C 620.976562 304.945312 619.5625 305.039062 618.109375 304.667969 C 616.660156 304.300781 615.359375 303.015625 614.210938 300.820312 L 613.703125 299.855469 L 618.644531 297.277344 L 619.28125 298.484375 C 619.972656 299.8125 620.457031 300.609375 620.726562 300.875 C 620.996094 301.144531 621.332031 301.175781 621.722656 300.972656 C 622.054688 300.800781 622.246094 300.5625 622.289062 300.246094 C 622.335938 299.941406 622.246094 299.566406 622.015625 299.128906 C 621.433594 298.019531 620.941406 297.269531 620.539062 296.871094 C 620.128906 296.480469 619.332031 296.234375 618.132812 296.144531 C 616.128906 295.988281 614.742188 295.828125 613.964844 295.667969 C 613.191406 295.507812 612.394531 295.125 611.574219 294.527344 C 610.757812 293.929688 610.082031 293.121094 609.550781 292.105469 C 608.777344 290.628906 608.589844 289.253906 608.988281 287.980469 C 609.382812 286.703125 610.363281 285.53125 611.9375 284.46875 L 611.113281 282.890625 L 613.386719 281.703125 L 614.214844 283.28125 C 615.839844 282.679688 617.25 282.59375 618.441406 283.023438 C 619.632812 283.453125 620.609375 284.398438 621.371094 285.855469 C 621.480469 286.058594 621.625 286.375 621.8125 286.8125 "/>
<g clip-path="url(#clip4)" clip-rule="nonzero">
<path style=" stroke:none;fill-rule:nonzero;fill:rgb(14.509583%,39.608765%,18.429565%);fill-opacity:1;" d="M 674.496094 474.316406 L 403.980469 474.316406 L 403.980469 328.347656 L 674.496094 328.347656 L 674.496094 474.316406 "/>
</g>
<path style=" stroke:none;fill-rule:nonzero;fill:rgb(49.409485%,85.099792%,34.118652%);fill-opacity:1;" d="M 658.953125 456.160156 L 419.527344 456.160156 L 419.527344 346.511719 L 658.953125 346.511719 L 658.953125 456.160156 "/>
<path style=" stroke:none;fill-rule:nonzero;fill:rgb(14.509583%,39.608765%,18.429565%);fill-opacity:1;" d="M 597.855469 401.335938 C 597.855469 433.433594 573.113281 459.453125 542.589844 459.453125 C 512.070312 459.453125 487.324219 433.433594 487.324219 401.335938 C 487.324219 369.234375 512.070312 343.21875 542.589844 343.21875 C 573.113281 343.21875 597.855469 369.234375 597.855469 401.335938 "/>
<path style=" stroke:none;fill-rule:nonzero;fill:rgb(14.509583%,39.608765%,18.429565%);fill-opacity:1;" d="M 475.585938 403.839844 C 475.585938 417.8125 464.820312 429.132812 451.535156 429.132812 C 438.253906 429.132812 427.484375 417.8125 427.484375 403.839844 C 427.484375 389.871094 438.253906 378.550781 451.535156 378.550781 C 464.820312 378.550781 475.585938 389.871094 475.585938 403.839844 "/>
<path style=" stroke:none;fill-rule:nonzero;fill:rgb(14.509583%,39.608765%,18.429565%);fill-opacity:1;" d="M 652.523438 401.335938 C 652.523438 415.300781 641.757812 426.625 628.476562 426.625 C 615.191406 426.625 604.421875 415.300781 604.421875 401.335938 C 604.421875 387.367188 615.191406 376.046875 628.476562 376.046875 C 641.757812 376.046875 652.523438 387.367188 652.523438 401.335938 "/>
<path style=" stroke:none;fill-rule:nonzero;fill:rgb(49.409485%,85.099792%,34.118652%);fill-opacity:1;" d="M 560.972656 386.253906 L 544.714844 386.253906 L 544.714844 383.5625 C 544.714844 380.695312 544.527344 378.824219 544.152344 377.941406 C 543.777344 377.058594 542.96875 376.613281 541.734375 376.613281 C 540.746094 376.613281 539.996094 376.996094 539.503906 377.757812 C 539.007812 378.523438 538.757812 379.667969 538.757812 381.195312 C 538.757812 383.734375 539.265625 385.515625 540.289062 386.535156 C 541.28125 387.550781 544.207031 389.535156 549.0625 392.476562 C 553.191406 394.96875 556.007812 396.878906 557.511719 398.207031 C 559.011719 399.527344 560.28125 401.40625 561.3125 403.828125 C 562.347656 406.25 562.863281 409.269531 562.863281 412.882812 C 562.863281 418.671875 561.464844 423.207031 558.675781 426.5 C 555.886719 429.792969 551.703125 431.832031 546.125 432.605469 L 546.125 438.714844 L 538.636719 438.714844 L 538.636719 432.40625 C 534.292969 431.976562 530.496094 430.308594 527.25 427.402344 C 524.003906 424.5 522.382812 419.429688 522.382812 412.199219 L 522.382812 409.03125 L 538.636719 409.03125 L 538.636719 413.003906 C 538.636719 417.371094 538.804688 420.082031 539.140625 421.136719 C 539.476562 422.199219 540.289062 422.726562 541.578125 422.726562 C 542.675781 422.726562 543.492188 422.359375 544.03125 421.617188 C 544.566406 420.882812 544.835938 419.796875 544.835938 418.347656 C 544.835938 414.707031 544.582031 412.101562 544.070312 410.53125 C 543.558594 408.96875 541.816406 407.261719 538.839844 405.414062 C 533.878906 402.308594 530.503906 400.027344 528.71875 398.566406 C 526.933594 397.105469 525.394531 395.050781 524.09375 392.402344 C 522.789062 389.75 522.140625 386.75 522.140625 383.40625 C 522.140625 378.558594 523.515625 374.753906 526.265625 371.996094 C 529.015625 369.234375 533.140625 367.535156 538.636719 366.894531 L 538.636719 361.710938 L 546.125 361.710938 L 546.125 366.894531 C 551.140625 367.535156 554.894531 369.21875 557.390625 371.933594 C 559.882812 374.652344 561.132812 378.410156 561.132812 383.203125 C 561.132812 383.871094 561.078125 384.890625 560.972656 386.253906 "/>
<path style=" stroke:none;fill-rule:nonzero;fill:rgb(49.409485%,85.099792%,34.118652%);fill-opacity:1;" d="M 456.441406 399.050781 L 450.867188 399.050781 L 450.867188 398.128906 C 450.867188 397.140625 450.800781 396.503906 450.667969 396.199219 C 450.542969 395.894531 450.265625 395.742188 449.84375 395.742188 C 449.503906 395.742188 449.246094 395.875 449.078125 396.136719 C 448.90625 396.398438 448.820312 396.792969 448.820312 397.316406 C 448.820312 398.1875 448.996094 398.796875 449.34375 399.148438 C 449.683594 399.496094 450.6875 400.179688 452.355469 401.191406 C 453.769531 402.042969 454.738281 402.695312 455.253906 403.152344 C 455.769531 403.605469 456.203125 404.246094 456.558594 405.082031 C 456.914062 405.914062 457.089844 406.945312 457.089844 408.191406 C 457.089844 410.171875 456.613281 411.726562 455.65625 412.859375 C 454.695312 413.992188 453.257812 414.6875 451.347656 414.957031 L 451.347656 417.050781 L 448.777344 417.050781 L 448.777344 414.886719 C 447.289062 414.738281 445.984375 414.167969 444.875 413.171875 C 443.757812 412.175781 443.203125 410.4375 443.203125 407.953125 L 443.203125 406.867188 L 448.777344 406.867188 L 448.777344 408.226562 C 448.777344 409.726562 448.835938 410.65625 448.953125 411.023438 C 449.066406 411.382812 449.34375 411.566406 449.785156 411.566406 C 450.164062 411.566406 450.445312 411.4375 450.628906 411.1875 C 450.8125 410.933594 450.90625 410.558594 450.90625 410.0625 C 450.90625 408.8125 450.816406 407.921875 450.640625 407.382812 C 450.46875 406.84375 449.867188 406.257812 448.847656 405.621094 C 447.144531 404.5625 445.988281 403.777344 445.378906 403.277344 C 444.761719 402.777344 444.234375 402.070312 443.789062 401.15625 C 443.339844 400.25 443.121094 399.21875 443.121094 398.074219 C 443.121094 396.414062 443.589844 395.105469 444.535156 394.15625 C 445.476562 393.210938 446.890625 392.632812 448.777344 392.414062 L 448.777344 390.632812 L 451.347656 390.632812 L 451.347656 392.414062 C 453.070312 392.632812 454.355469 393.207031 455.214844 394.140625 C 456.070312 395.070312 456.496094 396.359375 456.496094 398.003906 C 456.496094 398.238281 456.476562 398.582031 456.441406 399.050781 "/>
<path style=" stroke:none;fill-rule:nonzero;fill:rgb(49.409485%,85.099792%,34.118652%);fill-opacity:1;" d="M 636.601562 396.542969 L 631.027344 396.542969 L 631.027344 395.625 C 631.027344 394.636719 630.960938 393.996094 630.832031 393.695312 C 630.703125 393.394531 630.425781 393.242188 630.003906 393.242188 C 629.664062 393.242188 629.410156 393.371094 629.238281 393.632812 C 629.070312 393.890625 628.984375 394.285156 628.984375 394.808594 C 628.984375 395.679688 629.15625 396.296875 629.507812 396.640625 C 629.847656 396.992188 630.851562 397.667969 632.515625 398.679688 C 633.933594 399.535156 634.902344 400.1875 635.414062 400.644531 C 635.929688 401.101562 636.367188 401.746094 636.722656 402.574219 C 637.074219 403.40625 637.25 404.445312 637.25 405.679688 C 637.25 407.667969 636.773438 409.222656 635.816406 410.351562 C 634.859375 411.484375 633.421875 412.179688 631.507812 412.449219 L 631.507812 414.542969 L 628.941406 414.542969 L 628.941406 412.378906 C 627.453125 412.230469 626.148438 411.664062 625.035156 410.660156 C 623.921875 409.667969 623.363281 407.925781 623.363281 405.449219 L 623.363281 404.359375 L 628.941406 404.359375 L 628.941406 405.726562 C 628.941406 407.214844 629 408.148438 629.113281 408.515625 C 629.226562 408.875 629.507812 409.058594 629.949219 409.058594 C 630.328125 409.058594 630.605469 408.933594 630.792969 408.679688 C 630.976562 408.429688 631.066406 408.054688 631.066406 407.550781 C 631.066406 406.304688 630.980469 405.410156 630.804688 404.875 C 630.628906 404.335938 630.03125 403.753906 629.007812 403.117188 C 627.304688 402.050781 626.152344 401.269531 625.539062 400.769531 C 624.925781 400.269531 624.398438 399.5625 623.949219 398.652344 C 623.503906 397.746094 623.277344 396.71875 623.277344 395.566406 C 623.277344 393.902344 623.753906 392.601562 624.695312 391.65625 C 625.640625 390.710938 627.054688 390.125 628.941406 389.902344 L 628.941406 388.125 L 631.507812 388.125 L 631.507812 389.902344 C 633.230469 390.125 634.519531 390.699219 635.375 391.632812 C 636.226562 392.566406 636.65625 393.855469 636.65625 395.496094 C 636.65625 395.726562 636.640625 396.078125 636.601562 396.542969 "/>
<g clip-path="url(#clip5)" clip-rule="nonzero">
<path style=" stroke:none;fill-rule:nonzero;fill:rgb(13.328552%,12.159729%,14.898682%);fill-opacity:1;" d="M 327.875 608.9375 C 326.945312 608.9375 326.007812 608.726562 325.140625 608.292969 C 323.039062 607.253906 321.707031 605.105469 321.707031 602.746094 L 321.707031 553.210938 L 185.953125 553.210938 C 182.546875 553.210938 179.78125 550.441406 179.78125 547.015625 L 179.78125 497.480469 C 179.78125 494.0625 182.546875 491.289062 185.953125 491.289062 L 321.707031 491.289062 L 321.707031 441.75 C 321.707031 439.398438 323.039062 437.242188 325.140625 436.203125 C 327.253906 435.167969 329.765625 435.410156 331.628906 436.832031 L 436.527344 517.332031 C 438.046875 518.503906 438.949219 520.316406 438.949219 522.25 C 438.949219 524.179688 438.046875 525.996094 436.523438 527.164062 L 331.621094 607.664062 C 330.53125 608.511719 329.210938 608.9375 327.875 608.9375 Z M 327.875 608.9375 "/>
</g>
</g>
</svg>
